{
  "source": "C:\\Users\\Peter\\Desktop\\stuff\\MIUN\\quantitative_research\\video_compression\\videos\\BVI-HD\\BVI-HD_CDVL_videos\\ORIG\\Fountain_1920x1080_50fps.mp4",
  "output": "C:\\Users\\Peter\\Desktop\\stuff\\MIUN\\quantitative_research\\video_compression\\compressed_videos\\BVI-HD\\av1\\2.5\\Fountain_1920x1080_50fps_av1.mkv",
  "codec": "av1",
  "ok": "Input #0, mov,mp4,m4a,3gp,3g2,mj2, from 'C:\\Users\\Peter\\Desktop\\stuff\\MIUN\\quantitative_research\\video_compression\\videos\\BVI-HD\\BVI-HD_CDVL_videos\\ORIG\\Fountain_1920x1080_50fps.mp4':\n  Metadata:\n    major_brand     : isom\n    minor_version   : 512\n    compatible_brands: isomiso2avc1mp41\n    encoder         : Lavf54.28.101\n  Duration: 00:00:05.00, start: 0.000000, bitrate: 603457 kb/s\n  Stream #0:0[0x1](und): Video: h264 (High 4:4:4 Predictive) (avc1 / 0x31637661), yuv420p(progressive), 1920x1080, 603453 kb/s, 50 fps, 50 tbr, 50 tbn (default)\n    Metadata:\n      handler_name    : VideoHandler\n      vendor_id       : [0][0][0][0]\n[out#0/matroska @ 000001fe753fe9c0] Codec AVOption b:a (set bitrate (in bits/s)) has not been used for any stream. The most likely reason is either wrong type (e.g. a video option with no video streams) or that it is a private option of some decoder which was not actually used for any stream.\nStream mapping:\n  Stream #0:0 -> #0:0 (h264 (native) -> av1 (libsvtav1))\nPress [q] to stop, [?] for help\nSvt[info]: -------------------------------------------\nSvt[info]: SVT [version]:\tSVT-AV1 Encoder Lib v3.1.0-19-g6ecfe8ec\nSvt[info]: SVT [build]  :\tGCC 15.2.0\t 64 bit\nSvt[info]: LIB Build date: Aug 17 2025 11:37:13\nSvt[info]: -------------------------------------------\nSvt[info]: Level of Parallelism: 5\nSvt[info]: Number of PPCS 93\nSvt[info]: [asm level on system : up to avx2]\nSvt[info]: [asm level selected : up to avx2]\nSvt[info]: -------------------------------------------\nSvt[info]: SVT [config]: main profile\ttier (auto)\tlevel (auto)\nSvt[info]: SVT [config]: width / height / fps numerator / fps denominator \t\t: 1920 / 1080 / 50 / 1\nSvt[info]: SVT [config]: bit-depth / color format \t\t\t\t\t: 8 / YUV420\nSvt[info]: SVT [config]: preset / tune / pred struct \t\t\t\t\t: 4 / PSNR / random access\nSvt[info]: SVT [config]: gop size / mini-gop size / key-frame type \t\t\t: 321 / 16 / key frame\nSvt[info]: SVT [config]: BRC mode / target bitrate (kbps)\t\t\t\t: VBR / 2500 \nSvt[info]: SVT [config]: AQ mode / Variance Boost \t\t\t\t\t: 2 / 0\nSvt[info]: SVT [config]: sharpness / luminance-based QP bias \t\t\t\t: 0 / 0\nSvt[info]: SVT [config]: QP scale compress strength \t\t\t\t\t: 0\nSvt[info]: -------------------------------------------\nOutput #0, matroska, to 'C:\\Users\\Peter\\Desktop\\stuff\\MIUN\\quantitative_research\\video_compression\\compressed_videos\\BVI-HD\\av1\\2.5\\Fountain_1920x1080_50fps_av1.mkv':\n  Metadata:\n    major_brand     : isom\n    minor_version   : 512\n    compatible_brands: isomiso2avc1mp41\n    encoder         : Lavf62.3.100\n  Stream #0:0(und): Video: av1 (AV01 / 0x31305641), yuv420p(tv, progressive), 1920x1080, q=2-31, 2500 kb/s, 50 fps, 1k tbn (default)\n    Metadata:\n      encoder         : Lavc62.11.100 libsvtav1\n      handler_name    : VideoHandler\n      vendor_id       : [0][0][0][0]\n    Side data:\n      cpb: bitrate max/min/avg: 0/0/2500000 buffer size: 2500000 vbv_delay: N/A\nframe=    0 fps=0.0 q=0.0 size=       0KiB time=N/A bitrate=N/A speed=N/A elapsed=0:00:01.06    \nframe=    0 fps=0.0 q=0.0 size=       0KiB time=N/A bitrate=N/A speed=N/A elapsed=0:00:01.61    \nframe=    0 fps=0.0 q=0.0 size=       0KiB time=N/A bitrate=N/A speed=N/A elapsed=0:00:02.27    \nframe=    0 fps=0.0 q=0.0 size=       0KiB time=N/A bitrate=N/A speed=N/A elapsed=0:00:02.86    \nframe=    0 fps=0.0 q=0.0 size=       0KiB time=N/A bitrate=N/A speed=N/A elapsed=0:00:03.46    \nframe=    0 fps=0.0 q=0.0 size=       0KiB time=N/A bitrate=N/A speed=N/A elapsed=0:00:04.03    \nframe=    1 fps=0.2 q=31.0 size=       1KiB time=00:00:00.00 bitrate=N/A speed=   0x elapsed=0:00:04.56    \nframe=    1 fps=0.2 q=31.0 size=       1KiB time=00:00:00.00 bitrate=N/A speed=   0x elapsed=0:00:05.09    \nframe=    1 fps=0.2 q=31.0 size=       1KiB time=00:00:00.00 bitrate=N/A speed=   0x elapsed=0:00:05.62    \nframe=    1 fps=0.2 q=31.0 size=       1KiB time=00:00:00.00 bitrate=N/A speed=   0x elapsed=0:00:06.17    \nframe=    4 fps=0.6 q=51.0 size=       1KiB time=00:00:00.06 bitrate=  95.1kbits/s speed=0.00888x elapsed=0:00:06.75    \nframe=    6 fps=0.8 q=49.0 size=       1KiB time=00:00:00.10 bitrate=  57.0kbits/s speed=0.0137x elapsed=0:00:07.31    \nframe=    7 fps=0.9 q=46.0 size=       1KiB time=00:00:00.12 bitrate=  47.5kbits/s speed=0.0152x elapsed=0:00:07.86    \nframe=    9 fps=1.1 q=43.0 size=       1KiB time=00:00:00.16 bitrate=  35.6kbits/s speed=0.019x elapsed=0:00:08.39    \nframe=   10 fps=1.1 q=46.0 size=       1KiB time=00:00:00.18 bitrate=  31.7kbits/s speed=0.0201x elapsed=0:00:08.95    \nframe=   13 fps=1.4 q=44.0 size=       1KiB time=00:00:00.24 bitrate=  23.8kbits/s speed=0.0252x elapsed=0:00:09.50    \nframe=   16 fps=1.6 q=45.0 size=       1KiB time=00:00:00.28 bitrate=  20.4kbits/s speed=0.0277x elapsed=0:00:10.09    \nframe=   18 fps=1.7 q=47.0 size=       1KiB time=00:00:00.34 bitrate=  16.8kbits/s speed=0.0319x elapsed=0:00:10.65    \nframe=   20 fps=1.8 q=47.0 size=       1KiB time=00:00:00.38 bitrate=  15.0kbits/s speed=0.034x elapsed=0:00:11.19    \nframe=   22 fps=1.9 q=46.0 size=       1KiB time=00:00:00.42 bitrate=  13.6kbits/s speed=0.0358x elapsed=0:00:11.74    \nframe=   23 fps=1.9 q=47.0 size=       1KiB time=00:00:00.44 bitrate=  13.0kbits/s speed=0.0356x elapsed=0:00:12.34    \nframe=   26 fps=2.0 q=46.0 size=       1KiB time=00:00:00.50 bitrate=  11.4kbits/s speed=0.0387x elapsed=0:00:12.91    \nframe=   27 fps=2.0 q=47.0 size=       1KiB time=00:00:00.52 bitrate=  11.0kbits/s speed=0.0387x elapsed=0:00:13.43    \nframe=   29 fps=2.1 q=44.0 size=       1KiB time=00:00:00.56 bitrate=  10.2kbits/s speed=0.04x elapsed=0:00:13.99    \nframe=   33 fps=2.3 q=33.0 size=       1KiB time=00:00:00.64 bitrate=   8.9kbits/s speed=0.0438x elapsed=0:00:14.62    \nframe=   35 fps=2.3 q=47.0 size=       1KiB time=00:00:00.68 bitrate=   8.4kbits/s speed=0.0448x elapsed=0:00:15.18    \nframe=   37 fps=2.4 q=45.0 size=       1KiB time=00:00:00.72 bitrate=   7.9kbits/s speed=0.0458x elapsed=0:00:15.72    \nframe=   38 fps=2.3 q=46.0 size=       1KiB time=00:00:00.74 bitrate=   7.7kbits/s speed=0.0455x elapsed=0:00:16.26    \nframe=   39 fps=2.3 q=45.0 size=       1KiB time=00:00:00.76 bitrate=   7.5kbits/s speed=0.0452x elapsed=0:00:16.81    \nframe=   42 fps=2.4 q=46.0 size=       1KiB time=00:00:00.82 bitrate=   7.0kbits/s speed=0.0471x elapsed=0:00:17.39    \nframe=   44 fps=2.4 q=47.0 size=       1KiB time=00:00:00.84 bitrate=   6.8kbits/s speed=0.0467x elapsed=0:00:17.99    \nframe=   46 fps=2.5 q=47.0 size=       1KiB time=00:00:00.90 bitrate=   6.3kbits/s speed=0.0484x elapsed=0:00:18.58    \nframe=   49 fps=2.6 q=32.0 size=       1KiB time=00:00:00.96 bitrate=   5.9kbits/s speed=0.0501x elapsed=0:00:19.15    \nframe=   51 fps=2.6 q=47.0 size=       1KiB time=00:00:01.00 bitrate=   5.7kbits/s speed=0.0508x elapsed=0:00:19.69    \nframe=   54 fps=2.7 q=47.0 size=       1KiB time=00:00:01.04 bitrate=   5.5kbits/s speed=0.0514x elapsed=0:00:20.22    \nframe=   55 fps=2.6 q=45.0 size=       1KiB time=00:00:01.08 bitrate=   5.3kbits/s speed=0.052x elapsed=0:00:20.77    \nframe=   57 fps=2.7 q=37.0 size=       1KiB time=00:00:01.12 bitrate=   5.1kbits/s speed=0.0524x elapsed=0:00:21.39    \nframe=   59 fps=2.7 q=47.0 size=       1KiB time=00:00:01.16 bitrate=   4.9kbits/s speed=0.0528x elapsed=0:00:21.95    \nframe=   61 fps=2.7 q=44.0 size=       1KiB time=00:00:01.20 bitrate=   4.8kbits/s speed=0.0532x elapsed=0:00:22.54    \nframe=   66 fps=2.9 q=50.0 size=       1KiB time=00:00:01.28 bitrate=   4.5kbits/s speed=0.0554x elapsed=0:00:23.10    \nframe=   68 fps=2.9 q=50.0 size=       1KiB time=00:00:01.34 bitrate=   4.3kbits/s speed=0.0566x elapsed=0:00:23.67    \nframe=   71 fps=2.9 q=49.0 size=       1KiB time=00:00:01.40 bitrate=   4.1kbits/s speed=0.0578x elapsed=0:00:24.22    \nframe=   74 fps=3.0 q=50.0 size=       1KiB time=00:00:01.46 bitrate=   3.9kbits/s speed=0.0589x elapsed=0:00:24.77    \nframe=   76 fps=3.0 q=47.0 size=       1KiB time=00:00:01.50 bitrate=   3.8kbits/s speed=0.0592x elapsed=0:00:25.35    \nframe=   80 fps=3.1 q=50.0 size=       1KiB time=00:00:01.58 bitrate=   3.6kbits/s speed=0.0608x elapsed=0:00:25.96    \nframe=   83 fps=3.1 q=49.0 size=       1KiB time=00:00:01.64 bitrate=   3.5kbits/s speed=0.0618x elapsed=0:00:26.52    \nframe=   86 fps=3.2 q=49.0 size=       1KiB time=00:00:01.70 bitrate=   3.4kbits/s speed=0.0628x elapsed=0:00:27.06    \nframe=   87 fps=3.1 q=47.0 size=       1KiB time=00:00:01.72 bitrate=   3.3kbits/s speed=0.0621x elapsed=0:00:27.68    \nframe=   90 fps=3.2 q=50.0 size=       1KiB time=00:00:01.78 bitrate=   3.2kbits/s speed=0.063x elapsed=0:00:28.26    \nframe=   92 fps=3.2 q=47.0 size=       1KiB time=00:00:01.82 bitrate=   3.1kbits/s speed=0.0632x elapsed=0:00:28.79    \nframe=   96 fps=3.3 q=50.0 size=       1KiB time=00:00:01.90 bitrate=   3.0kbits/s speed=0.0646x elapsed=0:00:29.42    \nframe=   98 fps=3.3 q=50.0 size=       1KiB time=00:00:01.94 bitrate=   2.9kbits/s speed=0.0647x elapsed=0:00:29.99    \nframe=  100 fps=3.3 q=50.0 size=       1KiB time=00:00:01.98 bitrate=   2.9kbits/s speed=0.0648x elapsed=0:00:30.54    \nframe=  102 fps=3.3 q=49.0 size=       1KiB time=00:00:02.02 bitrate=   2.8kbits/s speed=0.065x elapsed=0:00:31.08    \nframe=  103 fps=3.3 q=46.0 size=       1KiB time=00:00:02.04 bitrate=   2.8kbits/s speed=0.0644x elapsed=0:00:31.66    \nframe=  107 fps=3.3 q=48.0 size=       1KiB time=00:00:02.12 bitrate=   2.7kbits/s speed=0.0657x elapsed=0:00:32.24    \nframe=  108 fps=3.3 q=47.0 size=       1KiB time=00:00:02.14 bitrate=   2.7kbits/s speed=0.0651x elapsed=0:00:32.85    \nframe=  112 fps=3.4 q=50.0 size=       1KiB time=00:00:02.22 bitrate=   2.6kbits/s speed=0.0664x elapsed=0:00:33.42    \nframe=  115 fps=3.4 q=50.0 size=       1KiB time=00:00:02.28 bitrate=   2.5kbits/s speed=0.0671x elapsed=0:00:33.98    \nframe=  117 fps=3.4 q=47.0 size=       1KiB time=00:00:02.32 bitrate=   2.5kbits/s speed=0.0672x elapsed=0:00:34.53    \nframe=  118 fps=3.4 q=49.0 size=       1KiB time=00:00:02.34 bitrate=   2.4kbits/s speed=0.0667x elapsed=0:00:35.09    \nframe=  119 fps=3.3 q=46.0 size=       1KiB time=00:00:02.36 bitrate=   2.4kbits/s speed=0.0662x elapsed=0:00:35.65    \nframe=  123 fps=3.4 q=49.0 size=       1KiB time=00:00:02.44 bitrate=   2.3kbits/s speed=0.0674x elapsed=0:00:36.19    \nframe=  125 fps=3.4 q=45.0 size=       1KiB time=00:00:02.48 bitrate=   2.3kbits/s speed=0.0674x elapsed=0:00:36.80    \nframe=  129 fps=3.5 q=34.0 size=       1KiB time=00:00:02.56 bitrate=   2.2kbits/s speed=0.0686x elapsed=0:00:37.33    \nframe=  132 fps=3.5 q=51.0 size=       1KiB time=00:00:02.60 bitrate=   2.2kbits/s speed=0.0686x elapsed=0:00:37.88    \nframe=  134 fps=3.5 q=49.0 size=       1KiB time=00:00:02.66 bitrate=   2.1kbits/s speed=0.0691x elapsed=0:00:38.46    \nframe=  135 fps=3.5 q=46.0 size=       1KiB time=00:00:02.68 bitrate=   2.1kbits/s speed=0.0687x elapsed=0:00:39.03    \nframe=  139 fps=3.5 q=48.0 size=       1KiB time=00:00:02.76 bitrate=   2.1kbits/s speed=0.0697x elapsed=0:00:39.60    \nframe=  141 fps=3.5 q=45.0 size=       1KiB time=00:00:02.80 bitrate=   2.0kbits/s speed=0.0696x elapsed=0:00:40.21    \nframe=  146 fps=3.6 q=51.0 size=       1KiB time=00:00:02.90 bitrate=   2.0kbits/s speed=0.0711x elapsed=0:00:40.76    \nframe=  147 fps=3.6 q=50.0 size=       1KiB time=00:00:02.92 bitrate=   2.0kbits/s speed=0.0707x elapsed=0:00:41.28    \nframe=  150 fps=3.6 q=49.0 size=       1KiB time=00:00:02.98 bitrate=   1.9kbits/s speed=0.0713x elapsed=0:00:41.80    \nframe=  151 fps=3.6 q=46.0 size=       1KiB time=00:00:03.00 bitrate=   1.9kbits/s speed=0.0708x elapsed=0:00:42.35    \nframe=  155 fps=3.6 q=49.0 size=       1KiB time=00:00:03.08 bitrate=   1.9kbits/s speed=0.0718x elapsed=0:00:42.90    \nframe=  157 fps=3.6 q=45.0 size=       1KiB time=00:00:03.12 bitrate=   1.8kbits/s speed=0.0717x elapsed=0:00:43.52    \nframe=  161 fps=3.6 q=35.0 size=       1KiB time=00:00:03.20 bitrate=   1.8kbits/s speed=0.0725x elapsed=0:00:44.12    \nframe=  165 fps=3.7 q=48.0 size=       1KiB time=00:00:03.28 bitrate=   1.7kbits/s speed=0.0735x elapsed=0:00:44.63    \nframe=  169 fps=3.7 q=43.0 size=       1KiB time=00:00:03.36 bitrate=   1.7kbits/s speed=0.0743x elapsed=0:00:45.20    \nframe=  169 fps=3.7 q=43.0 size=       1KiB time=00:00:03.36 bitrate=   1.7kbits/s speed=0.0734x elapsed=0:00:45.76    \nframe=  173 fps=3.7 q=45.0 size=       1KiB time=00:00:03.44 bitrate=   1.7kbits/s speed=0.0743x elapsed=0:00:46.30    \nframe=  177 fps=3.8 q=33.0 size=       1KiB time=00:00:03.52 bitrate=   1.6kbits/s speed=0.0751x elapsed=0:00:46.89    \nframe=  181 fps=3.8 q=48.0 size=       1KiB time=00:00:03.60 bitrate=   1.6kbits/s speed=0.0758x elapsed=0:00:47.46    \nframe=  185 fps=3.9 q=44.0 size=       1KiB time=00:00:03.68 bitrate=   1.6kbits/s speed=0.0766x elapsed=0:00:48.02    \nframe=  187 fps=3.9 q=49.0 size=       1KiB time=00:00:03.72 bitrate=   1.5kbits/s speed=0.0766x elapsed=0:00:48.56    \nframe=  189 fps=3.8 q=46.0 size=       1KiB time=00:00:03.76 bitrate=   1.5kbits/s speed=0.0765x elapsed=0:00:49.12    \nframe=  193 fps=3.9 q=35.0 size=       1KiB time=00:00:03.84 bitrate=   1.5kbits/s speed=0.0773x elapsed=0:00:49.69    \nframe=  197 fps=3.9 q=48.0 size=       1KiB time=00:00:03.92 bitrate=   1.5kbits/s speed=0.0781x elapsed=0:00:50.22    \nframe=  201 fps=4.0 q=44.0 size=       1KiB time=00:00:04.00 bitrate=   1.4kbits/s speed=0.0788x elapsed=0:00:50.76    \nframe=  201 fps=3.9 q=44.0 size=       1KiB time=00:00:04.00 bitrate=   1.4kbits/s speed=0.078x elapsed=0:00:51.27    \nframe=  205 fps=4.0 q=46.0 size=       1KiB time=00:00:04.08 bitrate=   1.4kbits/s speed=0.0787x elapsed=0:00:51.81    \nframe=  207 fps=4.0 q=48.0 size=       1KiB time=00:00:04.12 bitrate=   1.4kbits/s speed=0.0786x elapsed=0:00:52.39    \nframe=  211 fps=4.0 q=50.0 size=       1KiB time=00:00:04.16 bitrate=   1.4kbits/s speed=0.0785x elapsed=0:00:52.96    \nframe=  213 fps=4.0 q=48.0 size=       1KiB time=00:00:04.24 bitrate=   1.3kbits/s speed=0.0792x elapsed=0:00:53.51    \nframe=  217 fps=4.0 q=44.0 size=       1KiB time=00:00:04.32 bitrate=   1.3kbits/s speed=0.0799x elapsed=0:00:54.04    \nframe=  219 fps=4.0 q=50.0 size=       1KiB time=00:00:04.36 bitrate=   1.3kbits/s speed=0.0799x elapsed=0:00:54.59    \nframe=  223 fps=4.0 q=50.0 size=       1KiB time=00:00:04.44 bitrate=   1.3kbits/s speed=0.0805x elapsed=0:00:55.12    \nframe=  227 fps=4.1 q=52.0 size=       1KiB time=00:00:04.52 bitrate=   1.3kbits/s speed=0.0811x elapsed=0:00:55.71    \nframe=  231 fps=4.1 q=52.0 size=       1KiB time=00:00:04.56 bitrate=   1.3kbits/s speed=0.0811x elapsed=0:00:56.24    \nframe=  233 fps=4.1 q=47.0 size=       1KiB time=00:00:04.64 bitrate=   1.2kbits/s speed=0.0816x elapsed=0:00:56.84    \nframe=  233 fps=4.1 q=47.0 size=       1KiB time=00:00:04.64 bitrate=   1.2kbits/s speed=0.0808x elapsed=0:00:57.42    \nframe=  237 fps=4.1 q=52.0 size=       1KiB time=00:00:04.72 bitrate=   1.2kbits/s speed=0.0813x elapsed=0:00:58.06    \nframe=  239 fps=4.1 q=52.0 size=       1KiB time=00:00:04.72 bitrate=   1.2kbits/s speed=0.0804x elapsed=0:00:58.69    \nframe=  247 fps=4.2 q=52.0 size=       1KiB time=00:00:04.92 bitrate=   1.2kbits/s speed=0.083x elapsed=0:00:59.26    \n[out#0/matroska @ 000001fe753fe9c0] video:1454KiB audio:0KiB subtitle:0KiB other streams:0KiB global headers:0KiB muxing overhead: 0.127984%\nframe=  250 fps=4.2 q=52.0 Lsize=    1456KiB time=00:00:04.98 bitrate=2395.4kbits/s speed=0.0837x elapsed=0:00:59.51    \n",
  "seconds": 60.590505599975586,
  "probe_out": {}
}